<svg xmlns="http://www.w3.org/2000/svg" xmlns:xlink="http://www.w3.org/1999/xlink" width="200" zoomAndPan="magnify" viewBox="0 0 400 400" height="200" preserveAspectRatio="xMidYMid meet" version="1.0"><defs><g/><clipPath id="2f43c7d3c9"><path d="M 112.5 152.703125 L 187.5 152.703125 L 187.5 227.703125 L 112.5 227.703125 Z M 112.5 152.703125 " clip-rule="nonzero"/></clipPath><clipPath id="4293f27d0e"><path d="M 167.601562 196.953125 L 177.351562 202.6875 C 178.410156 203.304688 178.765625 204.628906 178.148438 205.6875 C 174.96875 211.023438 170.515625 215.4375 165.21875 218.523438 C 160.058594 221.480469 154.058594 223.15625 147.707031 223.15625 C 147.265625 223.15625 146.691406 223.15625 146.03125 223.113281 L 145.941406 223.113281 C 145.28125 224.480469 144.21875 225.582031 142.941406 226.332031 C 141.265625 227.304688 139.234375 227.613281 137.25 227.082031 C 135.21875 226.554688 133.632812 225.230469 132.660156 223.597656 C 131.691406 221.921875 131.382812 219.894531 131.910156 217.863281 C 132.441406 215.878906 133.765625 214.246094 135.398438 213.320312 C 137.074219 212.347656 139.148438 211.996094 141.132812 212.523438 C 143.117188 213.097656 144.75 214.378906 145.71875 216.054688 C 146.160156 216.847656 146.46875 217.773438 146.648438 218.703125 C 146.957031 218.703125 147.308594 218.746094 147.707031 218.746094 C 153.265625 218.746094 158.515625 217.246094 163.015625 214.6875 C 167.03125 212.347656 170.515625 209.171875 173.160156 205.332031 L 165.398438 200.789062 C 164.734375 201.714844 163.984375 202.554688 163.191406 203.394531 C 159.21875 207.320312 153.75 209.789062 147.707031 209.789062 C 141.707031 209.789062 136.234375 207.320312 132.265625 203.394531 C 131.425781 202.511719 130.589844 201.539062 129.882812 200.523438 L 120.042969 206.039062 C 118.984375 206.65625 117.617188 206.261719 117.042969 205.203125 L 117 205.203125 C 115.542969 202.511719 114.398438 199.6875 113.648438 196.773438 C 112.898438 193.90625 112.5 190.953125 112.5 187.90625 C 112.5 184.203125 113.074219 180.628906 114.132812 177.273438 C 115.101562 174.230469 116.46875 171.40625 118.148438 168.804688 C 117.265625 167.523438 116.867188 166.070312 116.867188 164.570312 C 116.867188 162.671875 117.574219 160.730469 119.074219 159.273438 C 120.53125 157.773438 122.46875 157.070312 124.367188 157.070312 C 126.308594 157.070312 128.25 157.773438 129.707031 159.273438 C 131.160156 160.730469 131.910156 162.671875 131.910156 164.570312 C 131.910156 166.511719 131.160156 168.453125 129.707031 169.90625 C 128.25 171.363281 126.308594 172.113281 124.367188 172.113281 C 123.441406 172.113281 122.515625 171.9375 121.632812 171.582031 C 120.265625 173.746094 119.160156 176.128906 118.367188 178.597656 C 117.441406 181.554688 116.910156 184.6875 116.910156 187.90625 C 116.910156 190.597656 117.265625 193.203125 117.925781 195.671875 C 118.410156 197.523438 119.074219 199.332031 119.867188 201.054688 L 127.71875 196.6875 C 126.53125 193.996094 125.867188 191.039062 125.867188 187.90625 C 125.867188 181.90625 128.339844 176.4375 132.265625 172.464844 C 135.75 169.023438 140.382812 166.730469 145.5 166.203125 L 145.5 154.90625 C 145.5 153.671875 146.515625 152.703125 147.707031 152.703125 C 154.675781 152.703125 161.207031 154.730469 166.675781 158.261719 C 171.925781 161.613281 176.25 166.289062 179.074219 171.894531 C 180.617188 171.761719 182.117188 172.113281 183.351562 172.863281 L 183.398438 172.863281 C 185.03125 173.832031 186.351562 175.421875 186.882812 177.453125 C 187.410156 179.4375 187.101562 181.464844 186.132812 183.144531 C 185.160156 184.820312 183.574219 186.144531 181.542969 186.671875 C 179.558594 187.203125 177.53125 186.847656 175.851562 185.921875 L 175.851562 185.878906 L 175.851562 185.921875 C 174.175781 184.953125 172.898438 183.320312 172.324219 181.332031 C 171.792969 179.347656 172.148438 177.320312 173.117188 175.644531 L 173.117188 175.597656 C 173.558594 174.804688 174.175781 174.054688 174.925781 173.480469 C 172.457031 168.804688 168.75 164.832031 164.292969 161.964844 C 160.101562 159.273438 155.207031 157.597656 149.957031 157.203125 L 149.957031 166.203125 C 155.074219 166.730469 159.707031 169.023438 163.191406 172.464844 C 167.117188 176.4375 169.589844 181.90625 169.589844 187.90625 C 169.589844 191.171875 168.882812 194.214844 167.601562 196.953125 Z M 160.058594 175.597656 C 156.882812 172.464844 152.515625 170.523438 147.707031 170.523438 C 142.941406 170.523438 138.574219 172.464844 135.398438 175.597656 C 132.265625 178.773438 130.324219 183.144531 130.324219 187.90625 C 130.324219 192.714844 132.265625 197.082031 135.398438 200.261719 C 138.574219 203.394531 142.941406 205.332031 147.707031 205.332031 C 152.515625 205.332031 156.882812 203.394531 160.058594 200.261719 C 163.191406 197.082031 165.132812 192.714844 165.132812 187.90625 C 165.132812 183.144531 163.191406 178.773438 160.058594 175.597656 Z M 147.707031 178.996094 C 150.175781 178.996094 152.425781 180.011719 154.015625 181.644531 C 155.648438 183.230469 156.660156 185.480469 156.660156 187.90625 C 156.660156 190.378906 155.648438 192.628906 154.015625 194.214844 C 152.425781 195.847656 150.175781 196.863281 147.707031 196.863281 C 145.28125 196.863281 143.03125 195.847656 141.441406 194.214844 C 139.808594 192.628906 138.792969 190.378906 138.792969 187.90625 C 138.792969 185.480469 139.808594 183.230469 141.441406 181.644531 C 143.03125 180.011719 145.28125 178.996094 147.707031 178.996094 Z M 150.882812 184.773438 C 150.089844 183.9375 148.984375 183.453125 147.707031 183.453125 C 146.46875 183.453125 145.367188 183.9375 144.574219 184.773438 C 143.734375 185.570312 143.25 186.671875 143.25 187.90625 C 143.25 189.1875 143.734375 190.289062 144.574219 191.082031 C 145.367188 191.921875 146.46875 192.40625 147.707031 192.40625 C 148.984375 192.40625 150.089844 191.921875 150.882812 191.082031 C 151.71875 190.289062 152.207031 189.1875 152.207031 187.90625 C 152.207031 186.671875 151.71875 185.570312 150.882812 184.773438 Z M 124.367188 161.480469 C 123.574219 161.480469 122.78125 161.789062 122.207031 162.40625 C 121.589844 162.980469 121.28125 163.773438 121.28125 164.570312 C 121.28125 165.363281 121.589844 166.15625 122.207031 166.773438 C 122.78125 167.394531 123.574219 167.703125 124.367188 167.703125 C 125.160156 167.703125 125.957031 167.394531 126.574219 166.773438 C 127.191406 166.15625 127.5 165.363281 127.5 164.570312 C 127.5 163.773438 127.191406 162.980469 126.574219 162.40625 C 125.957031 161.789062 125.160156 161.480469 124.367188 161.480469 Z M 136.5 221.347656 C 136.898438 222.054688 137.558594 222.582031 138.398438 222.804688 C 139.191406 223.023438 140.03125 222.894531 140.734375 222.496094 C 141.441406 222.097656 141.96875 221.4375 142.191406 220.644531 C 142.410156 219.804688 142.28125 218.964844 141.882812 218.261719 C 141.484375 217.597656 140.824219 217.023438 139.984375 216.804688 C 139.148438 216.582031 138.308594 216.714844 137.648438 217.113281 C 136.941406 217.511719 136.410156 218.171875 136.191406 219.011719 C 135.96875 219.847656 136.101562 220.6875 136.5 221.347656 Z M 182.292969 180.9375 C 182.691406 180.230469 182.824219 179.394531 182.601562 178.597656 C 182.382812 177.761719 181.851562 177.097656 181.148438 176.703125 C 180.484375 176.304688 179.648438 176.171875 178.808594 176.394531 C 177.96875 176.613281 177.308594 177.144531 176.910156 177.847656 C 176.515625 178.511719 176.382812 179.347656 176.601562 180.1875 C 176.824219 181.023438 177.398438 181.6875 178.058594 182.082031 C 178.765625 182.480469 179.601562 182.613281 180.441406 182.394531 C 181.234375 182.171875 181.898438 181.644531 182.292969 180.9375 Z M 182.292969 180.9375 " clip-rule="nonzero"/></clipPath><linearGradient x1="5.467643" gradientTransform="matrix(4.411764, 0, 0, 4.411764, 112.500002, 152.701446)" y1="18.393141" x2="10.644645" gradientUnits="userSpaceOnUse" y2="-1.637405" id="7f4d256d9a"><stop stop-opacity="1" stop-color="rgb(39.035034%, 38.296509%, 37.496948%)" offset="0"/><stop stop-opacity="1" stop-color="rgb(39.147949%, 38.406372%, 37.606812%)" offset="0.0078125"/><stop stop-opacity="1" stop-color="rgb(39.373779%, 38.626099%, 37.826538%)" offset="0.015625"/><stop stop-opacity="1" stop-color="rgb(39.599609%, 38.845825%, 38.044739%)" offset="0.0234375"/><stop stop-opacity="1" stop-color="rgb(39.823914%, 39.065552%, 38.264465%)" offset="0.03125"/><stop stop-opacity="1" stop-color="rgb(40.049744%, 39.283752%, 38.484192%)" offset="0.0390625"/><stop stop-opacity="1" stop-color="rgb(40.275574%, 39.503479%, 38.703918%)" offset="0.046875"/><stop stop-opacity="1" stop-color="rgb(40.501404%, 39.723206%, 38.923645%)" offset="0.0546875"/><stop stop-opacity="1" stop-color="rgb(40.727234%, 39.942932%, 39.143372%)" offset="0.0625"/><stop stop-opacity="1" stop-color="rgb(40.951538%, 40.162659%, 39.361572%)" offset="0.0703125"/><stop stop-opacity="1" stop-color="rgb(41.177368%, 40.380859%, 39.581299%)" offset="0.078125"/><stop stop-opacity="1" stop-color="rgb(41.403198%, 40.600586%, 39.801025%)" offset="0.0859375"/><stop stop-opacity="1" stop-color="rgb(41.629028%, 40.820312%, 40.020752%)" offset="0.09375"/><stop stop-opacity="1" stop-color="rgb(41.853333%, 41.040039%, 40.240479%)" offset="0.101562"/><stop stop-opacity="1" stop-color="rgb(42.079163%, 41.259766%, 40.458679%)" offset="0.109375"/><stop stop-opacity="1" stop-color="rgb(42.304993%, 41.477966%, 40.678406%)" offset="0.117188"/><stop stop-opacity="1" stop-color="rgb(42.530823%, 41.697693%, 40.898132%)" offset="0.125"/><stop stop-opacity="1" stop-color="rgb(42.756653%, 41.917419%, 41.117859%)" offset="0.132812"/><stop stop-opacity="1" stop-color="rgb(42.980957%, 42.137146%, 41.337585%)" offset="0.140625"/><stop stop-opacity="1" stop-color="rgb(43.206787%, 42.356873%, 41.555786%)" offset="0.148438"/><stop stop-opacity="1" stop-color="rgb(43.432617%, 42.575073%, 41.775513%)" offset="0.15625"/><stop stop-opacity="1" stop-color="rgb(43.658447%, 42.7948%, 41.995239%)" offset="0.164062"/><stop stop-opacity="1" stop-color="rgb(43.882751%, 43.014526%, 42.214966%)" offset="0.171875"/><stop stop-opacity="1" stop-color="rgb(44.108582%, 43.234253%, 42.434692%)" offset="0.179688"/><stop stop-opacity="1" stop-color="rgb(44.334412%, 43.453979%, 42.652893%)" offset="0.1875"/><stop stop-opacity="1" stop-color="rgb(44.560242%, 43.67218%, 42.87262%)" offset="0.195312"/><stop stop-opacity="1" stop-color="rgb(44.784546%, 43.891907%, 43.092346%)" offset="0.203125"/><stop stop-opacity="1" stop-color="rgb(45.010376%, 44.111633%, 43.312073%)" offset="0.205375"/><stop stop-opacity="1" stop-color="rgb(45.123291%, 44.221497%, 43.421936%)" offset="0.210938"/><stop stop-opacity="1" stop-color="rgb(45.236206%, 44.33136%, 43.531799%)" offset="0.21875"/><stop stop-opacity="1" stop-color="rgb(45.462036%, 44.551086%, 43.75%)" offset="0.226562"/><stop stop-opacity="1" stop-color="rgb(45.687866%, 44.770813%, 43.969727%)" offset="0.234375"/><stop stop-opacity="1" stop-color="rgb(45.91217%, 44.989014%, 44.189453%)" offset="0.242188"/><stop stop-opacity="1" stop-color="rgb(46.138%, 45.20874%, 44.40918%)" offset="0.25"/><stop stop-opacity="1" stop-color="rgb(46.363831%, 45.428467%, 44.628906%)" offset="0.257812"/><stop stop-opacity="1" stop-color="rgb(46.589661%, 45.648193%, 44.847107%)" offset="0.265625"/><stop stop-opacity="1" stop-color="rgb(46.813965%, 45.86792%, 45.066833%)" offset="0.273438"/><stop stop-opacity="1" stop-color="rgb(47.039795%, 46.086121%, 45.28656%)" offset="0.28125"/><stop stop-opacity="1" stop-color="rgb(47.265625%, 46.305847%, 45.506287%)" offset="0.289062"/><stop stop-opacity="1" stop-color="rgb(47.491455%, 46.525574%, 45.726013%)" offset="0.296875"/><stop stop-opacity="1" stop-color="rgb(47.717285%, 46.7453%, 45.944214%)" offset="0.304688"/><stop stop-opacity="1" stop-color="rgb(47.941589%, 46.965027%, 46.16394%)" offset="0.3125"/><stop stop-opacity="1" stop-color="rgb(48.167419%, 47.183228%, 46.383667%)" offset="0.320312"/><stop stop-opacity="1" stop-color="rgb(48.39325%, 47.402954%, 46.603394%)" offset="0.328125"/><stop stop-opacity="1" stop-color="rgb(48.61908%, 47.622681%, 46.82312%)" offset="0.335938"/><stop stop-opacity="1" stop-color="rgb(48.843384%, 47.842407%, 47.042847%)" offset="0.34375"/><stop stop-opacity="1" stop-color="rgb(49.069214%, 48.062134%, 47.261047%)" offset="0.351562"/><stop stop-opacity="1" stop-color="rgb(49.295044%, 48.280334%, 47.480774%)" offset="0.359375"/><stop stop-opacity="1" stop-color="rgb(49.520874%, 48.500061%, 47.7005%)" offset="0.367188"/><stop stop-opacity="1" stop-color="rgb(49.745178%, 48.719788%, 47.920227%)" offset="0.375"/><stop stop-opacity="1" stop-color="rgb(49.971008%, 48.939514%, 48.139954%)" offset="0.382812"/><stop stop-opacity="1" stop-color="rgb(50.196838%, 49.159241%, 48.358154%)" offset="0.390625"/><stop stop-opacity="1" stop-color="rgb(50.422668%, 49.377441%, 48.577881%)" offset="0.398438"/><stop stop-opacity="1" stop-color="rgb(50.648499%, 49.597168%, 48.797607%)" offset="0.40625"/><stop stop-opacity="1" stop-color="rgb(50.872803%, 49.816895%, 49.017334%)" offset="0.414062"/><stop stop-opacity="1" stop-color="rgb(51.098633%, 50.036621%, 49.237061%)" offset="0.421875"/><stop stop-opacity="1" stop-color="rgb(51.324463%, 50.256348%, 49.455261%)" offset="0.429688"/><stop stop-opacity="1" stop-color="rgb(51.550293%, 50.474548%, 49.674988%)" offset="0.4375"/><stop stop-opacity="1" stop-color="rgb(51.774597%, 50.694275%, 49.894714%)" offset="0.445313"/><stop stop-opacity="1" stop-color="rgb(52.000427%, 50.914001%, 50.114441%)" offset="0.453125"/><stop stop-opacity="1" stop-color="rgb(52.226257%, 51.133728%, 50.334167%)" offset="0.460938"/><stop stop-opacity="1" stop-color="rgb(52.487183%, 51.387024%, 50.587463%)" offset="0.46875"/><stop stop-opacity="1" stop-color="rgb(52.87323%, 51.760864%, 50.956726%)" offset="0.472656"/><stop stop-opacity="1" stop-color="rgb(53.111267%, 51.991272%, 51.182556%)" offset="0.476562"/><stop stop-opacity="1" stop-color="rgb(53.347778%, 52.220154%, 51.408386%)" offset="0.480469"/><stop stop-opacity="1" stop-color="rgb(53.585815%, 52.450562%, 51.635742%)" offset="0.484375"/><stop stop-opacity="1" stop-color="rgb(53.822327%, 52.680969%, 51.861572%)" offset="0.488281"/><stop stop-opacity="1" stop-color="rgb(54.060364%, 52.911377%, 52.088928%)" offset="0.492188"/><stop stop-opacity="1" stop-color="rgb(54.296875%, 53.140259%, 52.314758%)" offset="0.496094"/><stop stop-opacity="1" stop-color="rgb(54.533386%, 53.370667%, 52.542114%)" offset="0.5"/><stop stop-opacity="1" stop-color="rgb(54.769897%, 53.599548%, 52.767944%)" offset="0.503906"/><stop stop-opacity="1" stop-color="rgb(55.007935%, 53.829956%, 52.9953%)" offset="0.507812"/><stop stop-opacity="1" stop-color="rgb(55.244446%, 54.058838%, 53.22113%)" offset="0.511719"/><stop stop-opacity="1" stop-color="rgb(55.482483%, 54.289246%, 53.44696%)" offset="0.515625"/><stop stop-opacity="1" stop-color="rgb(55.718994%, 54.518127%, 53.672791%)" offset="0.519531"/><stop stop-opacity="1" stop-color="rgb(55.957031%, 54.748535%, 53.900146%)" offset="0.523438"/><stop stop-opacity="1" stop-color="rgb(56.193542%, 54.977417%, 54.125977%)" offset="0.527344"/><stop stop-opacity="1" stop-color="rgb(56.43158%, 55.207825%, 54.353333%)" offset="0.53125"/><stop stop-opacity="1" stop-color="rgb(56.668091%, 55.436707%, 54.579163%)" offset="0.535156"/><stop stop-opacity="1" stop-color="rgb(56.906128%, 55.667114%, 54.806519%)" offset="0.539062"/><stop stop-opacity="1" stop-color="rgb(57.142639%, 55.895996%, 55.032349%)" offset="0.542969"/><stop stop-opacity="1" stop-color="rgb(57.37915%, 56.126404%, 55.258179%)" offset="0.546875"/><stop stop-opacity="1" stop-color="rgb(57.615662%, 56.355286%, 55.484009%)" offset="0.550781"/><stop stop-opacity="1" stop-color="rgb(57.853699%, 56.585693%, 55.711365%)" offset="0.554687"/><stop stop-opacity="1" stop-color="rgb(58.09021%, 56.814575%, 55.937195%)" offset="0.558594"/><stop stop-opacity="1" stop-color="rgb(58.328247%, 57.044983%, 56.164551%)" offset="0.5625"/><stop stop-opacity="1" stop-color="rgb(58.564758%, 57.273865%, 56.390381%)" offset="0.566406"/><stop stop-opacity="1" stop-color="rgb(58.802795%, 57.504272%, 56.617737%)" offset="0.570312"/><stop stop-opacity="1" stop-color="rgb(59.039307%, 57.73468%, 56.843567%)" offset="0.574219"/><stop stop-opacity="1" stop-color="rgb(59.277344%, 57.965088%, 57.069397%)" offset="0.578125"/><stop stop-opacity="1" stop-color="rgb(59.513855%, 58.19397%, 57.295227%)" offset="0.582031"/><stop stop-opacity="1" stop-color="rgb(59.751892%, 58.424377%, 57.522583%)" offset="0.585938"/><stop stop-opacity="1" stop-color="rgb(59.988403%, 58.653259%, 57.748413%)" offset="0.589844"/><stop stop-opacity="1" stop-color="rgb(60.224915%, 58.883667%, 57.975769%)" offset="0.59375"/><stop stop-opacity="1" stop-color="rgb(60.461426%, 59.112549%, 58.201599%)" offset="0.597656"/><stop stop-opacity="1" stop-color="rgb(60.699463%, 59.342957%, 58.428955%)" offset="0.601562"/><stop stop-opacity="1" stop-color="rgb(60.935974%, 59.571838%, 58.654785%)" offset="0.605469"/><stop stop-opacity="1" stop-color="rgb(61.174011%, 59.802246%, 58.880615%)" offset="0.609375"/><stop stop-opacity="1" stop-color="rgb(61.410522%, 60.031128%, 59.106445%)" offset="0.613281"/><stop stop-opacity="1" stop-color="rgb(61.64856%, 60.261536%, 59.333801%)" offset="0.617188"/><stop stop-opacity="1" stop-color="rgb(61.885071%, 60.490417%, 59.559631%)" offset="0.621094"/><stop stop-opacity="1" stop-color="rgb(62.123108%, 60.720825%, 59.786987%)" offset="0.625"/><stop stop-opacity="1" stop-color="rgb(62.359619%, 60.949707%, 60.012817%)" offset="0.628906"/><stop stop-opacity="1" stop-color="rgb(62.597656%, 61.180115%, 60.240173%)" offset="0.632812"/><stop stop-opacity="1" stop-color="rgb(62.834167%, 61.408997%, 60.466003%)" offset="0.636719"/><stop stop-opacity="1" stop-color="rgb(63.070679%, 61.639404%, 60.691833%)" offset="0.640625"/><stop stop-opacity="1" stop-color="rgb(63.30719%, 61.868286%, 60.917664%)" offset="0.644531"/><stop stop-opacity="1" stop-color="rgb(63.545227%, 62.098694%, 61.14502%)" offset="0.648438"/><stop stop-opacity="1" stop-color="rgb(63.781738%, 62.327576%, 61.37085%)" offset="0.652344"/><stop stop-opacity="1" stop-color="rgb(64.019775%, 62.557983%, 61.598206%)" offset="0.65625"/><stop stop-opacity="1" stop-color="rgb(64.256287%, 62.788391%, 61.824036%)" offset="0.660156"/><stop stop-opacity="1" stop-color="rgb(64.494324%, 63.018799%, 62.051392%)" offset="0.664062"/><stop stop-opacity="1" stop-color="rgb(64.730835%, 63.247681%, 62.277222%)" offset="0.667969"/><stop stop-opacity="1" stop-color="rgb(64.968872%, 63.478088%, 62.503052%)" offset="0.671875"/><stop stop-opacity="1" stop-color="rgb(65.205383%, 63.70697%, 62.728882%)" offset="0.675781"/><stop stop-opacity="1" stop-color="rgb(65.44342%, 63.937378%, 62.956238%)" offset="0.679688"/><stop stop-opacity="1" stop-color="rgb(65.679932%, 64.16626%, 63.182068%)" offset="0.683594"/><stop stop-opacity="1" stop-color="rgb(65.916443%, 64.396667%, 63.409424%)" offset="0.6875"/><stop stop-opacity="1" stop-color="rgb(66.152954%, 64.625549%, 63.635254%)" offset="0.691406"/><stop stop-opacity="1" stop-color="rgb(66.390991%, 64.855957%, 63.86261%)" offset="0.695312"/><stop stop-opacity="1" stop-color="rgb(66.627502%, 65.084839%, 64.08844%)" offset="0.699219"/><stop stop-opacity="1" stop-color="rgb(66.86554%, 65.315247%, 64.31427%)" offset="0.703125"/><stop stop-opacity="1" stop-color="rgb(67.102051%, 65.544128%, 64.5401%)" offset="0.707031"/><stop stop-opacity="1" stop-color="rgb(67.340088%, 65.774536%, 64.767456%)" offset="0.710938"/><stop stop-opacity="1" stop-color="rgb(67.576599%, 66.003418%, 64.993286%)" offset="0.714844"/><stop stop-opacity="1" stop-color="rgb(67.814636%, 66.233826%, 65.220642%)" offset="0.71875"/><stop stop-opacity="1" stop-color="rgb(68.051147%, 66.462708%, 65.446472%)" offset="0.722656"/><stop stop-opacity="1" stop-color="rgb(68.289185%, 66.693115%, 65.673828%)" offset="0.726562"/><stop stop-opacity="1" stop-color="rgb(68.525696%, 66.921997%, 65.899658%)" offset="0.730469"/><stop stop-opacity="1" stop-color="rgb(68.762207%, 67.152405%, 66.125488%)" offset="0.734375"/><stop stop-opacity="1" stop-color="rgb(68.998718%, 67.381287%, 66.351318%)" offset="0.738281"/><stop stop-opacity="1" stop-color="rgb(69.236755%, 67.611694%, 66.578674%)" offset="0.742188"/><stop stop-opacity="1" stop-color="rgb(69.473267%, 67.840576%, 66.804504%)" offset="0.746094"/><stop stop-opacity="1" stop-color="rgb(69.711304%, 68.070984%, 67.03186%)" offset="0.75"/><stop stop-opacity="1" stop-color="rgb(69.947815%, 68.301392%, 67.25769%)" offset="0.753906"/><stop stop-opacity="1" stop-color="rgb(70.185852%, 68.531799%, 67.485046%)" offset="0.757812"/><stop stop-opacity="1" stop-color="rgb(70.422363%, 68.760681%, 67.710876%)" offset="0.761719"/><stop stop-opacity="1" stop-color="rgb(70.6604%, 68.991089%, 67.936707%)" offset="0.765625"/><stop stop-opacity="1" stop-color="rgb(70.896912%, 69.219971%, 68.162537%)" offset="0.769531"/><stop stop-opacity="1" stop-color="rgb(71.134949%, 69.450378%, 68.389893%)" offset="0.773438"/><stop stop-opacity="1" stop-color="rgb(71.37146%, 69.67926%, 68.615723%)" offset="0.777344"/><stop stop-opacity="1" stop-color="rgb(71.607971%, 69.909668%, 68.843079%)" offset="0.78125"/><stop stop-opacity="1" stop-color="rgb(71.844482%, 70.13855%, 69.068909%)" offset="0.785156"/><stop stop-opacity="1" stop-color="rgb(72.08252%, 70.368958%, 69.296265%)" offset="0.789062"/><stop stop-opacity="1" stop-color="rgb(72.319031%, 70.597839%, 69.522095%)" offset="0.792969"/><stop stop-opacity="1" stop-color="rgb(72.557068%, 70.828247%, 69.749451%)" offset="0.796875"/><stop stop-opacity="1" stop-color="rgb(72.793579%, 71.057129%, 69.975281%)" offset="0.800781"/><stop stop-opacity="1" stop-color="rgb(73.031616%, 71.287537%, 70.201111%)" offset="0.804688"/><stop stop-opacity="1" stop-color="rgb(73.268127%, 71.516418%, 70.426941%)" offset="0.808594"/><stop stop-opacity="1" stop-color="rgb(73.506165%, 71.746826%, 70.654297%)" offset="0.8125"/><stop stop-opacity="1" stop-color="rgb(73.742676%, 71.975708%, 70.880127%)" offset="0.816406"/><stop stop-opacity="1" stop-color="rgb(73.980713%, 72.206116%, 71.107483%)" offset="0.820312"/><stop stop-opacity="1" stop-color="rgb(74.217224%, 72.434998%, 71.333313%)" offset="0.824219"/><stop stop-opacity="1" stop-color="rgb(74.453735%, 72.665405%, 71.560669%)" offset="0.828125"/><stop stop-opacity="1" stop-color="rgb(74.690247%, 72.894287%, 71.786499%)" offset="0.832031"/><stop stop-opacity="1" stop-color="rgb(74.928284%, 73.124695%, 72.012329%)" offset="0.835938"/><stop stop-opacity="1" stop-color="rgb(75.164795%, 73.355103%, 72.238159%)" offset="0.839844"/><stop stop-opacity="1" stop-color="rgb(75.402832%, 73.58551%, 72.465515%)" offset="0.84375"/><stop stop-opacity="1" stop-color="rgb(75.639343%, 73.814392%, 72.691345%)" offset="0.847656"/><stop stop-opacity="1" stop-color="rgb(75.87738%, 74.0448%, 72.918701%)" offset="0.851562"/><stop stop-opacity="1" stop-color="rgb(76.113892%, 74.273682%, 73.144531%)" offset="0.855469"/><stop stop-opacity="1" stop-color="rgb(76.351929%, 74.504089%, 73.371887%)" offset="0.859375"/><stop stop-opacity="1" stop-color="rgb(76.58844%, 74.732971%, 73.597717%)" offset="0.863281"/><stop stop-opacity="1" stop-color="rgb(76.826477%, 74.963379%, 73.823547%)" offset="0.867188"/><stop stop-opacity="1" stop-color="rgb(77.062988%, 75.192261%, 74.049377%)" offset="0.871094"/><stop stop-opacity="1" stop-color="rgb(77.301025%, 75.422668%, 74.276733%)" offset="0.875"/><stop stop-opacity="1" stop-color="rgb(77.537537%, 75.65155%, 74.502563%)" offset="0.878906"/><stop stop-opacity="1" stop-color="rgb(77.774048%, 75.881958%, 74.729919%)" offset="0.882812"/><stop stop-opacity="1" stop-color="rgb(78.010559%, 76.11084%, 74.95575%)" offset="0.886719"/><stop stop-opacity="1" stop-color="rgb(78.248596%, 76.341248%, 75.183105%)" offset="0.890625"/><stop stop-opacity="1" stop-color="rgb(78.485107%, 76.570129%, 75.408936%)" offset="0.894531"/><stop stop-opacity="1" stop-color="rgb(78.723145%, 76.800537%, 75.634766%)" offset="0.898438"/><stop stop-opacity="1" stop-color="rgb(78.959656%, 77.029419%, 75.860596%)" offset="0.902344"/><stop stop-opacity="1" stop-color="rgb(79.197693%, 77.259827%, 76.087952%)" offset="0.90625"/><stop stop-opacity="1" stop-color="rgb(79.434204%, 77.488708%, 76.313782%)" offset="0.910156"/><stop stop-opacity="1" stop-color="rgb(79.672241%, 77.719116%, 76.541138%)" offset="0.914062"/><stop stop-opacity="1" stop-color="rgb(79.908752%, 77.947998%, 76.766968%)" offset="0.917969"/><stop stop-opacity="1" stop-color="rgb(80.14679%, 78.178406%, 76.994324%)" offset="0.921875"/><stop stop-opacity="1" stop-color="rgb(80.383301%, 78.408813%, 77.220154%)" offset="0.925781"/><stop stop-opacity="1" stop-color="rgb(80.619812%, 78.639221%, 77.445984%)" offset="0.929688"/><stop stop-opacity="1" stop-color="rgb(80.856323%, 78.868103%, 77.671814%)" offset="0.933594"/><stop stop-opacity="1" stop-color="rgb(81.09436%, 79.098511%, 77.89917%)" offset="0.9375"/><stop stop-opacity="1" stop-color="rgb(81.14624%, 79.148865%, 77.949524%)" offset="1"/></linearGradient></defs><rect x="-37.5" width="450" fill="#ffffff" y="-37.499999" height="449.999989" fill-opacity="1"/><rect x="-37.5" width="450" fill="#ffffff" y="-37.499999" height="449.999989" fill-opacity="1"/><rect x="-37.5" width="450" fill="#121212" y="-37.499999" height="449.999989" fill-opacity="1"/><g clip-path="url(#2f43c7d3c9)"><g clip-path="url(#4293f27d0e)"><path fill="url(#7f4d256d9a)" d="M 112.5 152.703125 L 112.5 227.613281 L 187.410156 227.613281 L 187.410156 152.703125 Z M 112.5 152.703125 " fill-rule="nonzero"/></g></g><g fill="#ebe6e3" fill-opacity="1"><g transform="translate(187.499992, 203.624987)"><g><path d="M 9.1875 0 L 4.296875 0 L 4.296875 -31.65625 L 9.1875 -31.65625 L 9.1875 -16.0625 L 23.953125 -31.65625 L 27.109375 -31.65625 L 12.140625 -16.921875 L 29.125 0 L 23 0.625 L 9.1875 -15.59375 Z M 9.1875 0 "/></g></g></g><g fill="#ebe6e3" fill-opacity="1"><g transform="translate(223.160175, 203.624987)"><g><path d="M 24.34375 -13.625 L 28.96875 -13.625 L 28.96875 -1.046875 C 26.226562 0.0351562 22.929688 0.578125 19.078125 0.578125 C 14.390625 0.578125 10.359375 -0.664062 6.984375 -3.15625 C 5.328125 -4.394531 4.003906 -6.023438 3.015625 -8.046875 C 2.023438 -10.078125 1.53125 -12.316406 1.53125 -14.765625 C 1.53125 -17.222656 1.910156 -19.429688 2.671875 -21.390625 C 3.441406 -23.359375 4.4375 -24.992188 5.65625 -26.296875 C 6.882812 -27.597656 8.3125 -28.710938 9.9375 -29.640625 C 12.96875 -31.359375 16.300781 -32.21875 19.9375 -32.21875 C 21.34375 -32.21875 22.859375 -32.054688 24.484375 -31.734375 C 26.109375 -31.421875 27.347656 -31.09375 28.203125 -30.75 L 27.734375 -27.546875 C 23.429688 -29.359375 19.859375 -30.265625 17.015625 -30.265625 C 13.796875 -29.429688 11.253906 -27.722656 9.390625 -25.140625 C 7.523438 -22.566406 6.59375 -19.414062 6.59375 -15.6875 C 6.59375 -11.03125 7.820312 -7.429688 10.28125 -4.890625 C 12.738281 -2.359375 15.972656 -1.09375 19.984375 -1.09375 C 21.578125 -1.09375 23.03125 -1.253906 24.34375 -1.578125 Z M 24.34375 -13.625 "/></g></g></g></svg>