<svg xmlns="http://www.w3.org/2000/svg" xmlns:xlink="http://www.w3.org/1999/xlink" width="500" zoomAndPan="magnify" viewBox="0 0 375 374.999991" height="500" preserveAspectRatio="xMidYMid meet" version="1.0"><defs><g/><clipPath id="3260387930"><path d="M 19.242188 98.160156 L 197 98.160156 L 197 276 L 19.242188 276 Z M 19.242188 98.160156 " clip-rule="nonzero"/></clipPath><clipPath id="8414a77031"><path d="M 150.390625 203.476562 L 173.59375 217.128906 C 176.113281 218.597656 176.953125 221.746094 175.484375 224.265625 C 167.925781 236.972656 157.320312 247.472656 144.71875 254.820312 C 132.433594 261.855469 118.152344 265.847656 103.035156 265.847656 C 101.984375 265.847656 100.617188 265.847656 99.042969 265.742188 L 98.832031 265.742188 C 97.257812 268.996094 94.738281 271.621094 91.695312 273.40625 C 87.703125 275.71875 82.875 276.453125 78.148438 275.191406 C 73.320312 273.933594 69.539062 270.78125 67.230469 266.898438 C 64.917969 262.90625 64.183594 258.078125 65.445312 253.246094 C 66.703125 248.523438 69.855469 244.636719 73.738281 242.433594 C 77.730469 240.121094 82.664062 239.28125 87.390625 240.542969 C 92.113281 241.90625 96 244.953125 98.308594 248.941406 C 99.359375 250.832031 100.09375 253.035156 100.515625 255.242188 C 101.25 255.242188 102.089844 255.347656 103.035156 255.347656 C 116.265625 255.347656 128.757812 251.777344 139.46875 245.6875 C 149.023438 240.121094 157.320312 232.5625 163.617188 223.425781 L 145.140625 212.613281 C 143.5625 214.816406 141.777344 216.8125 139.890625 218.808594 C 130.4375 228.152344 117.417969 234.03125 103.035156 234.03125 C 88.753906 234.03125 75.734375 228.152344 66.285156 218.808594 C 64.289062 216.707031 62.292969 214.398438 60.613281 211.980469 L 37.199219 225.105469 C 34.679688 226.578125 31.425781 225.632812 30.058594 223.113281 L 29.953125 223.113281 C 26.488281 216.707031 23.757812 209.988281 21.972656 203.058594 C 20.1875 196.230469 19.242188 189.195312 19.242188 181.953125 C 19.242188 173.132812 20.609375 164.628906 23.128906 156.648438 C 25.4375 149.402344 28.695312 142.683594 32.683594 136.488281 C 30.582031 133.441406 29.640625 129.976562 29.640625 126.40625 C 29.640625 121.890625 31.320312 117.273438 34.890625 113.808594 C 38.355469 110.238281 42.972656 108.558594 47.488281 108.558594 C 52.109375 108.558594 56.730469 110.238281 60.195312 113.808594 C 63.660156 117.273438 65.445312 121.890625 65.445312 126.40625 C 65.445312 131.027344 63.660156 135.648438 60.195312 139.113281 C 56.730469 142.578125 52.109375 144.363281 47.488281 144.363281 C 45.285156 144.363281 43.078125 143.941406 40.980469 143.101562 C 37.722656 148.246094 35.097656 153.917969 33.207031 159.796875 C 31.003906 166.832031 29.742188 174.285156 29.742188 181.953125 C 29.742188 188.355469 30.582031 194.550781 32.160156 200.433594 C 33.3125 204.84375 34.890625 209.148438 36.777344 213.242188 L 55.46875 202.847656 C 52.632812 196.441406 51.058594 189.40625 51.058594 181.953125 C 51.058594 167.671875 56.9375 154.652344 66.285156 145.203125 C 74.578125 137.011719 85.605469 131.550781 97.785156 130.292969 L 97.785156 103.410156 C 97.785156 100.472656 100.199219 98.160156 103.035156 98.160156 C 119.625 98.160156 135.164062 102.992188 148.183594 111.390625 C 160.679688 119.371094 170.96875 130.503906 177.6875 143.835938 C 181.363281 143.523438 184.933594 144.363281 187.875 146.148438 L 187.980469 146.148438 C 191.863281 148.457031 195.015625 152.238281 196.273438 157.066406 C 197.535156 161.792969 196.800781 166.621094 194.488281 170.613281 C 192.179688 174.601562 188.398438 177.753906 183.570312 179.011719 C 178.84375 180.273438 174.015625 179.433594 170.023438 177.226562 L 170.023438 177.121094 L 170.023438 177.226562 C 166.035156 174.917969 162.988281 171.03125 161.625 166.308594 C 160.363281 161.582031 161.203125 156.753906 163.515625 152.761719 L 163.515625 152.65625 C 164.5625 150.765625 166.035156 148.980469 167.820312 147.617188 C 161.9375 136.488281 153.117188 127.035156 142.515625 120.210938 C 132.539062 113.808594 120.882812 109.816406 108.390625 108.871094 L 108.390625 130.292969 C 120.570312 131.550781 131.59375 137.011719 139.890625 145.203125 C 149.234375 154.652344 155.113281 167.671875 155.113281 181.953125 C 155.113281 189.722656 153.433594 196.96875 150.390625 203.476562 Z M 132.433594 152.65625 C 124.875 145.203125 114.480469 140.582031 103.035156 140.582031 C 91.695312 140.582031 81.300781 145.203125 73.738281 152.65625 C 66.285156 160.21875 61.664062 170.613281 61.664062 181.953125 C 61.664062 193.398438 66.285156 203.792969 73.738281 211.351562 C 81.300781 218.808594 91.695312 223.425781 103.035156 223.425781 C 114.480469 223.425781 124.875 218.808594 132.433594 211.351562 C 139.890625 203.792969 144.507812 193.398438 144.507812 181.953125 C 144.507812 170.613281 139.890625 160.21875 132.433594 152.65625 Z M 103.035156 160.742188 C 108.914062 160.742188 114.269531 163.15625 118.050781 167.042969 C 121.933594 170.820312 124.347656 176.175781 124.347656 181.953125 C 124.347656 187.832031 121.933594 193.1875 118.050781 196.96875 C 114.269531 200.851562 108.914062 203.265625 103.035156 203.265625 C 97.257812 203.265625 91.902344 200.851562 88.125 196.96875 C 84.238281 193.1875 81.824219 187.832031 81.824219 181.953125 C 81.824219 176.175781 84.238281 170.820312 88.125 167.042969 C 91.902344 163.15625 97.257812 160.742188 103.035156 160.742188 Z M 110.59375 174.496094 C 108.703125 172.503906 106.078125 171.347656 103.035156 171.347656 C 100.09375 171.347656 97.46875 172.503906 95.578125 174.496094 C 93.582031 176.386719 92.429688 179.011719 92.429688 181.953125 C 92.429688 184.996094 93.582031 187.621094 95.578125 189.511719 C 97.46875 191.507812 100.09375 192.660156 103.035156 192.660156 C 106.078125 192.660156 108.703125 191.507812 110.59375 189.511719 C 112.589844 187.621094 113.742188 184.996094 113.742188 181.953125 C 113.742188 179.011719 112.589844 176.386719 110.59375 174.496094 Z M 47.488281 119.058594 C 45.597656 119.058594 43.707031 119.792969 42.34375 121.261719 C 40.875 122.628906 40.140625 124.515625 40.140625 126.40625 C 40.140625 128.296875 40.875 130.1875 42.34375 131.65625 C 43.707031 133.128906 45.597656 133.863281 47.488281 133.863281 C 49.378906 133.863281 51.269531 133.128906 52.738281 131.65625 C 54.207031 130.1875 54.945312 128.296875 54.945312 126.40625 C 54.945312 124.515625 54.207031 122.628906 52.738281 121.261719 C 51.269531 119.792969 49.378906 119.058594 47.488281 119.058594 Z M 76.363281 261.542969 C 77.308594 263.222656 78.882812 264.480469 80.878906 265.007812 C 82.769531 265.53125 84.765625 265.21875 86.445312 264.273438 C 88.125 263.328125 89.382812 261.753906 89.910156 259.863281 C 90.433594 257.867188 90.117188 255.871094 89.175781 254.191406 C 88.230469 252.617188 86.652344 251.253906 84.660156 250.726562 C 82.664062 250.203125 80.667969 250.515625 79.09375 251.460938 C 77.414062 252.40625 76.152344 253.980469 75.628906 255.976562 C 75.105469 257.972656 75.417969 259.96875 76.363281 261.542969 Z M 185.355469 165.363281 C 186.300781 163.683594 186.613281 161.6875 186.089844 159.796875 C 185.5625 157.800781 184.304688 156.226562 182.625 155.28125 C 181.050781 154.335938 179.054688 154.023438 177.058594 154.546875 C 175.0625 155.070312 173.488281 156.332031 172.542969 158.011719 C 171.597656 159.585938 171.285156 161.582031 171.808594 163.578125 C 172.332031 165.570312 173.699219 167.148438 175.273438 168.09375 C 176.953125 169.035156 178.949219 169.351562 180.945312 168.828125 C 182.832031 168.300781 184.410156 167.042969 185.355469 165.363281 Z M 185.355469 165.363281 " clip-rule="nonzero"/></clipPath><linearGradient x1="5.467643" gradientTransform="matrix(10.5, 0, 0, 10.5, 19.243855, 98.162078)" y1="18.393142" x2="10.644644" gradientUnits="userSpaceOnUse" y2="-1.637404" id="655bd780c6"><stop stop-opacity="1" stop-color="rgb(39.035034%, 38.296509%, 37.496948%)" offset="0"/><stop stop-opacity="1" stop-color="rgb(39.147949%, 38.406372%, 37.606812%)" offset="0.0078125"/><stop stop-opacity="1" stop-color="rgb(39.373779%, 38.626099%, 37.826538%)" offset="0.015625"/><stop stop-opacity="1" stop-color="rgb(39.599609%, 38.845825%, 38.044739%)" offset="0.0234375"/><stop stop-opacity="1" stop-color="rgb(39.823914%, 39.065552%, 38.264465%)" offset="0.03125"/><stop stop-opacity="1" stop-color="rgb(40.049744%, 39.283752%, 38.484192%)" offset="0.0390625"/><stop stop-opacity="1" stop-color="rgb(40.275574%, 39.503479%, 38.703918%)" offset="0.046875"/><stop stop-opacity="1" stop-color="rgb(40.501404%, 39.723206%, 38.923645%)" offset="0.0546875"/><stop stop-opacity="1" stop-color="rgb(40.727234%, 39.942932%, 39.143372%)" offset="0.0625"/><stop stop-opacity="1" stop-color="rgb(40.951538%, 40.162659%, 39.361572%)" offset="0.0703125"/><stop stop-opacity="1" stop-color="rgb(41.177368%, 40.380859%, 39.581299%)" offset="0.078125"/><stop stop-opacity="1" stop-color="rgb(41.403198%, 40.600586%, 39.801025%)" offset="0.0859375"/><stop stop-opacity="1" stop-color="rgb(41.629028%, 40.820312%, 40.020752%)" offset="0.09375"/><stop stop-opacity="1" stop-color="rgb(41.853333%, 41.040039%, 40.240479%)" offset="0.101563"/><stop stop-opacity="1" stop-color="rgb(42.079163%, 41.259766%, 40.458679%)" offset="0.109375"/><stop stop-opacity="1" stop-color="rgb(42.304993%, 41.477966%, 40.678406%)" offset="0.117188"/><stop stop-opacity="1" stop-color="rgb(42.530823%, 41.697693%, 40.898132%)" offset="0.125"/><stop stop-opacity="1" stop-color="rgb(42.756653%, 41.917419%, 41.117859%)" offset="0.132812"/><stop stop-opacity="1" stop-color="rgb(42.980957%, 42.137146%, 41.337585%)" offset="0.140625"/><stop stop-opacity="1" stop-color="rgb(43.206787%, 42.356873%, 41.555786%)" offset="0.148438"/><stop stop-opacity="1" stop-color="rgb(43.432617%, 42.575073%, 41.775513%)" offset="0.15625"/><stop stop-opacity="1" stop-color="rgb(43.658447%, 42.7948%, 41.995239%)" offset="0.164062"/><stop stop-opacity="1" stop-color="rgb(43.882751%, 43.014526%, 42.214966%)" offset="0.171875"/><stop stop-opacity="1" stop-color="rgb(44.108582%, 43.234253%, 42.434692%)" offset="0.179688"/><stop stop-opacity="1" stop-color="rgb(44.334412%, 43.453979%, 42.652893%)" offset="0.1875"/><stop stop-opacity="1" stop-color="rgb(44.560242%, 43.67218%, 42.87262%)" offset="0.195313"/><stop stop-opacity="1" stop-color="rgb(44.784546%, 43.891907%, 43.092346%)" offset="0.203125"/><stop stop-opacity="1" stop-color="rgb(45.010376%, 44.111633%, 43.312073%)" offset="0.205375"/><stop stop-opacity="1" stop-color="rgb(45.123291%, 44.221497%, 43.421936%)" offset="0.210938"/><stop stop-opacity="1" stop-color="rgb(45.236206%, 44.33136%, 43.531799%)" offset="0.21875"/><stop stop-opacity="1" stop-color="rgb(45.462036%, 44.551086%, 43.75%)" offset="0.226562"/><stop stop-opacity="1" stop-color="rgb(45.687866%, 44.770813%, 43.969727%)" offset="0.234375"/><stop stop-opacity="1" stop-color="rgb(45.91217%, 44.989014%, 44.189453%)" offset="0.242188"/><stop stop-opacity="1" stop-color="rgb(46.138%, 45.20874%, 44.40918%)" offset="0.25"/><stop stop-opacity="1" stop-color="rgb(46.363831%, 45.428467%, 44.628906%)" offset="0.257812"/><stop stop-opacity="1" stop-color="rgb(46.589661%, 45.648193%, 44.847107%)" offset="0.265625"/><stop stop-opacity="1" stop-color="rgb(46.813965%, 45.86792%, 45.066833%)" offset="0.273438"/><stop stop-opacity="1" stop-color="rgb(47.039795%, 46.086121%, 45.28656%)" offset="0.28125"/><stop stop-opacity="1" stop-color="rgb(47.265625%, 46.305847%, 45.506287%)" offset="0.289062"/><stop stop-opacity="1" stop-color="rgb(47.491455%, 46.525574%, 45.726013%)" offset="0.296875"/><stop stop-opacity="1" stop-color="rgb(47.717285%, 46.7453%, 45.944214%)" offset="0.304687"/><stop stop-opacity="1" stop-color="rgb(47.941589%, 46.965027%, 46.16394%)" offset="0.3125"/><stop stop-opacity="1" stop-color="rgb(48.167419%, 47.183228%, 46.383667%)" offset="0.320312"/><stop stop-opacity="1" stop-color="rgb(48.39325%, 47.402954%, 46.603394%)" offset="0.328125"/><stop stop-opacity="1" stop-color="rgb(48.61908%, 47.622681%, 46.82312%)" offset="0.335938"/><stop stop-opacity="1" stop-color="rgb(48.843384%, 47.842407%, 47.042847%)" offset="0.34375"/><stop stop-opacity="1" stop-color="rgb(49.069214%, 48.062134%, 47.261047%)" offset="0.351563"/><stop stop-opacity="1" stop-color="rgb(49.295044%, 48.280334%, 47.480774%)" offset="0.359375"/><stop stop-opacity="1" stop-color="rgb(49.520874%, 48.500061%, 47.7005%)" offset="0.367188"/><stop stop-opacity="1" stop-color="rgb(49.745178%, 48.719788%, 47.920227%)" offset="0.375"/><stop stop-opacity="1" stop-color="rgb(49.971008%, 48.939514%, 48.139954%)" offset="0.382813"/><stop stop-opacity="1" stop-color="rgb(50.196838%, 49.159241%, 48.358154%)" offset="0.390625"/><stop stop-opacity="1" stop-color="rgb(50.422668%, 49.377441%, 48.577881%)" offset="0.398438"/><stop stop-opacity="1" stop-color="rgb(50.648499%, 49.597168%, 48.797607%)" offset="0.40625"/><stop stop-opacity="1" stop-color="rgb(50.872803%, 49.816895%, 49.017334%)" offset="0.414062"/><stop stop-opacity="1" stop-color="rgb(51.098633%, 50.036621%, 49.237061%)" offset="0.421875"/><stop stop-opacity="1" stop-color="rgb(51.324463%, 50.256348%, 49.455261%)" offset="0.429688"/><stop stop-opacity="1" stop-color="rgb(51.550293%, 50.474548%, 49.674988%)" offset="0.4375"/><stop stop-opacity="1" stop-color="rgb(51.774597%, 50.694275%, 49.894714%)" offset="0.445312"/><stop stop-opacity="1" stop-color="rgb(52.000427%, 50.914001%, 50.114441%)" offset="0.453125"/><stop stop-opacity="1" stop-color="rgb(52.226257%, 51.133728%, 50.334167%)" offset="0.460937"/><stop stop-opacity="1" stop-color="rgb(52.487183%, 51.387024%, 50.587463%)" offset="0.46875"/><stop stop-opacity="1" stop-color="rgb(52.87323%, 51.760864%, 50.956726%)" offset="0.472656"/><stop stop-opacity="1" stop-color="rgb(53.111267%, 51.991272%, 51.182556%)" offset="0.476562"/><stop stop-opacity="1" stop-color="rgb(53.347778%, 52.220154%, 51.408386%)" offset="0.480469"/><stop stop-opacity="1" stop-color="rgb(53.585815%, 52.450562%, 51.635742%)" offset="0.484375"/><stop stop-opacity="1" stop-color="rgb(53.822327%, 52.680969%, 51.861572%)" offset="0.488281"/><stop stop-opacity="1" stop-color="rgb(54.060364%, 52.911377%, 52.088928%)" offset="0.492188"/><stop stop-opacity="1" stop-color="rgb(54.296875%, 53.140259%, 52.314758%)" offset="0.496094"/><stop stop-opacity="1" stop-color="rgb(54.533386%, 53.370667%, 52.542114%)" offset="0.5"/><stop stop-opacity="1" stop-color="rgb(54.769897%, 53.599548%, 52.767944%)" offset="0.503906"/><stop stop-opacity="1" stop-color="rgb(55.007935%, 53.829956%, 52.9953%)" offset="0.507812"/><stop stop-opacity="1" stop-color="rgb(55.244446%, 54.058838%, 53.22113%)" offset="0.511719"/><stop stop-opacity="1" stop-color="rgb(55.482483%, 54.289246%, 53.44696%)" offset="0.515625"/><stop stop-opacity="1" stop-color="rgb(55.718994%, 54.518127%, 53.672791%)" offset="0.519531"/><stop stop-opacity="1" stop-color="rgb(55.957031%, 54.748535%, 53.900146%)" offset="0.523438"/><stop stop-opacity="1" stop-color="rgb(56.193542%, 54.977417%, 54.125977%)" offset="0.527344"/><stop stop-opacity="1" stop-color="rgb(56.43158%, 55.207825%, 54.353333%)" offset="0.53125"/><stop stop-opacity="1" stop-color="rgb(56.668091%, 55.436707%, 54.579163%)" offset="0.535156"/><stop stop-opacity="1" stop-color="rgb(56.906128%, 55.667114%, 54.806519%)" offset="0.539062"/><stop stop-opacity="1" stop-color="rgb(57.142639%, 55.895996%, 55.032349%)" offset="0.542969"/><stop stop-opacity="1" stop-color="rgb(57.37915%, 56.126404%, 55.258179%)" offset="0.546875"/><stop stop-opacity="1" stop-color="rgb(57.615662%, 56.355286%, 55.484009%)" offset="0.550781"/><stop stop-opacity="1" stop-color="rgb(57.853699%, 56.585693%, 55.711365%)" offset="0.554687"/><stop stop-opacity="1" stop-color="rgb(58.09021%, 56.814575%, 55.937195%)" offset="0.558594"/><stop stop-opacity="1" stop-color="rgb(58.328247%, 57.044983%, 56.164551%)" offset="0.5625"/><stop stop-opacity="1" stop-color="rgb(58.564758%, 57.273865%, 56.390381%)" offset="0.566406"/><stop stop-opacity="1" stop-color="rgb(58.802795%, 57.504272%, 56.617737%)" offset="0.570312"/><stop stop-opacity="1" stop-color="rgb(59.039307%, 57.73468%, 56.843567%)" offset="0.574219"/><stop stop-opacity="1" stop-color="rgb(59.277344%, 57.965088%, 57.069397%)" offset="0.578125"/><stop stop-opacity="1" stop-color="rgb(59.513855%, 58.19397%, 57.295227%)" offset="0.582031"/><stop stop-opacity="1" stop-color="rgb(59.751892%, 58.424377%, 57.522583%)" offset="0.585938"/><stop stop-opacity="1" stop-color="rgb(59.988403%, 58.653259%, 57.748413%)" offset="0.589844"/><stop stop-opacity="1" stop-color="rgb(60.224915%, 58.883667%, 57.975769%)" offset="0.59375"/><stop stop-opacity="1" stop-color="rgb(60.461426%, 59.112549%, 58.201599%)" offset="0.597656"/><stop stop-opacity="1" stop-color="rgb(60.699463%, 59.342957%, 58.428955%)" offset="0.601562"/><stop stop-opacity="1" stop-color="rgb(60.935974%, 59.571838%, 58.654785%)" offset="0.605469"/><stop stop-opacity="1" stop-color="rgb(61.174011%, 59.802246%, 58.880615%)" offset="0.609375"/><stop stop-opacity="1" stop-color="rgb(61.410522%, 60.031128%, 59.106445%)" offset="0.613281"/><stop stop-opacity="1" stop-color="rgb(61.64856%, 60.261536%, 59.333801%)" offset="0.617187"/><stop stop-opacity="1" stop-color="rgb(61.885071%, 60.490417%, 59.559631%)" offset="0.621094"/><stop stop-opacity="1" stop-color="rgb(62.123108%, 60.720825%, 59.786987%)" offset="0.625"/><stop stop-opacity="1" stop-color="rgb(62.359619%, 60.949707%, 60.012817%)" offset="0.628906"/><stop stop-opacity="1" stop-color="rgb(62.597656%, 61.180115%, 60.240173%)" offset="0.632812"/><stop stop-opacity="1" stop-color="rgb(62.834167%, 61.408997%, 60.466003%)" offset="0.636719"/><stop stop-opacity="1" stop-color="rgb(63.070679%, 61.639404%, 60.691833%)" offset="0.640625"/><stop stop-opacity="1" stop-color="rgb(63.30719%, 61.868286%, 60.917664%)" offset="0.644531"/><stop stop-opacity="1" stop-color="rgb(63.545227%, 62.098694%, 61.14502%)" offset="0.648438"/><stop stop-opacity="1" stop-color="rgb(63.781738%, 62.327576%, 61.37085%)" offset="0.652344"/><stop stop-opacity="1" stop-color="rgb(64.019775%, 62.557983%, 61.598206%)" offset="0.65625"/><stop stop-opacity="1" stop-color="rgb(64.256287%, 62.788391%, 61.824036%)" offset="0.660156"/><stop stop-opacity="1" stop-color="rgb(64.494324%, 63.018799%, 62.051392%)" offset="0.664062"/><stop stop-opacity="1" stop-color="rgb(64.730835%, 63.247681%, 62.277222%)" offset="0.667969"/><stop stop-opacity="1" stop-color="rgb(64.968872%, 63.478088%, 62.503052%)" offset="0.671875"/><stop stop-opacity="1" stop-color="rgb(65.205383%, 63.70697%, 62.728882%)" offset="0.675781"/><stop stop-opacity="1" stop-color="rgb(65.44342%, 63.937378%, 62.956238%)" offset="0.679688"/><stop stop-opacity="1" stop-color="rgb(65.679932%, 64.16626%, 63.182068%)" offset="0.683594"/><stop stop-opacity="1" stop-color="rgb(65.916443%, 64.396667%, 63.409424%)" offset="0.6875"/><stop stop-opacity="1" stop-color="rgb(66.152954%, 64.625549%, 63.635254%)" offset="0.691406"/><stop stop-opacity="1" stop-color="rgb(66.390991%, 64.855957%, 63.86261%)" offset="0.695312"/><stop stop-opacity="1" stop-color="rgb(66.627502%, 65.084839%, 64.08844%)" offset="0.699219"/><stop stop-opacity="1" stop-color="rgb(66.86554%, 65.315247%, 64.31427%)" offset="0.703125"/><stop stop-opacity="1" stop-color="rgb(67.102051%, 65.544128%, 64.5401%)" offset="0.707031"/><stop stop-opacity="1" stop-color="rgb(67.340088%, 65.774536%, 64.767456%)" offset="0.710938"/><stop stop-opacity="1" stop-color="rgb(67.576599%, 66.003418%, 64.993286%)" offset="0.714844"/><stop stop-opacity="1" stop-color="rgb(67.814636%, 66.233826%, 65.220642%)" offset="0.71875"/><stop stop-opacity="1" stop-color="rgb(68.051147%, 66.462708%, 65.446472%)" offset="0.722656"/><stop stop-opacity="1" stop-color="rgb(68.289185%, 66.693115%, 65.673828%)" offset="0.726562"/><stop stop-opacity="1" stop-color="rgb(68.525696%, 66.921997%, 65.899658%)" offset="0.730469"/><stop stop-opacity="1" stop-color="rgb(68.762207%, 67.152405%, 66.125488%)" offset="0.734375"/><stop stop-opacity="1" stop-color="rgb(68.998718%, 67.381287%, 66.351318%)" offset="0.738281"/><stop stop-opacity="1" stop-color="rgb(69.236755%, 67.611694%, 66.578674%)" offset="0.742188"/><stop stop-opacity="1" stop-color="rgb(69.473267%, 67.840576%, 66.804504%)" offset="0.746094"/><stop stop-opacity="1" stop-color="rgb(69.711304%, 68.070984%, 67.03186%)" offset="0.75"/><stop stop-opacity="1" stop-color="rgb(69.947815%, 68.301392%, 67.25769%)" offset="0.753906"/><stop stop-opacity="1" stop-color="rgb(70.185852%, 68.531799%, 67.485046%)" offset="0.757813"/><stop stop-opacity="1" stop-color="rgb(70.422363%, 68.760681%, 67.710876%)" offset="0.761719"/><stop stop-opacity="1" stop-color="rgb(70.6604%, 68.991089%, 67.936707%)" offset="0.765625"/><stop stop-opacity="1" stop-color="rgb(70.896912%, 69.219971%, 68.162537%)" offset="0.769531"/><stop stop-opacity="1" stop-color="rgb(71.134949%, 69.450378%, 68.389893%)" offset="0.773438"/><stop stop-opacity="1" stop-color="rgb(71.37146%, 69.67926%, 68.615723%)" offset="0.777344"/><stop stop-opacity="1" stop-color="rgb(71.607971%, 69.909668%, 68.843079%)" offset="0.78125"/><stop stop-opacity="1" stop-color="rgb(71.844482%, 70.13855%, 69.068909%)" offset="0.785156"/><stop stop-opacity="1" stop-color="rgb(72.08252%, 70.368958%, 69.296265%)" offset="0.789062"/><stop stop-opacity="1" stop-color="rgb(72.319031%, 70.597839%, 69.522095%)" offset="0.792969"/><stop stop-opacity="1" stop-color="rgb(72.557068%, 70.828247%, 69.749451%)" offset="0.796875"/><stop stop-opacity="1" stop-color="rgb(72.793579%, 71.057129%, 69.975281%)" offset="0.800781"/><stop stop-opacity="1" stop-color="rgb(73.031616%, 71.287537%, 70.201111%)" offset="0.804688"/><stop stop-opacity="1" stop-color="rgb(73.268127%, 71.516418%, 70.426941%)" offset="0.808594"/><stop stop-opacity="1" stop-color="rgb(73.506165%, 71.746826%, 70.654297%)" offset="0.8125"/><stop stop-opacity="1" stop-color="rgb(73.742676%, 71.975708%, 70.880127%)" offset="0.816406"/><stop stop-opacity="1" stop-color="rgb(73.980713%, 72.206116%, 71.107483%)" offset="0.820313"/><stop stop-opacity="1" stop-color="rgb(74.217224%, 72.434998%, 71.333313%)" offset="0.824219"/><stop stop-opacity="1" stop-color="rgb(74.453735%, 72.665405%, 71.560669%)" offset="0.828125"/><stop stop-opacity="1" stop-color="rgb(74.690247%, 72.894287%, 71.786499%)" offset="0.832031"/><stop stop-opacity="1" stop-color="rgb(74.928284%, 73.124695%, 72.012329%)" offset="0.835938"/><stop stop-opacity="1" stop-color="rgb(75.164795%, 73.355103%, 72.238159%)" offset="0.839844"/><stop stop-opacity="1" stop-color="rgb(75.402832%, 73.58551%, 72.465515%)" offset="0.84375"/><stop stop-opacity="1" stop-color="rgb(75.639343%, 73.814392%, 72.691345%)" offset="0.847656"/><stop stop-opacity="1" stop-color="rgb(75.87738%, 74.0448%, 72.918701%)" offset="0.851562"/><stop stop-opacity="1" stop-color="rgb(76.113892%, 74.273682%, 73.144531%)" offset="0.855469"/><stop stop-opacity="1" stop-color="rgb(76.351929%, 74.504089%, 73.371887%)" offset="0.859375"/><stop stop-opacity="1" stop-color="rgb(76.58844%, 74.732971%, 73.597717%)" offset="0.863281"/><stop stop-opacity="1" stop-color="rgb(76.826477%, 74.963379%, 73.823547%)" offset="0.867188"/><stop stop-opacity="1" stop-color="rgb(77.062988%, 75.192261%, 74.049377%)" offset="0.871094"/><stop stop-opacity="1" stop-color="rgb(77.2995%, 75.422668%, 74.276733%)" offset="0.875"/><stop stop-opacity="1" stop-color="rgb(77.536011%, 75.65155%, 74.502563%)" offset="0.878906"/><stop stop-opacity="1" stop-color="rgb(77.774048%, 75.881958%, 74.729919%)" offset="0.882812"/><stop stop-opacity="1" stop-color="rgb(78.010559%, 76.11084%, 74.95575%)" offset="0.886719"/><stop stop-opacity="1" stop-color="rgb(78.248596%, 76.341248%, 75.183105%)" offset="0.890625"/><stop stop-opacity="1" stop-color="rgb(78.485107%, 76.570129%, 75.408936%)" offset="0.894531"/><stop stop-opacity="1" stop-color="rgb(78.723145%, 76.800537%, 75.634766%)" offset="0.898438"/><stop stop-opacity="1" stop-color="rgb(78.959656%, 77.029419%, 75.860596%)" offset="0.902344"/><stop stop-opacity="1" stop-color="rgb(79.197693%, 77.259827%, 76.087952%)" offset="0.90625"/><stop stop-opacity="1" stop-color="rgb(79.434204%, 77.488708%, 76.313782%)" offset="0.910156"/><stop stop-opacity="1" stop-color="rgb(79.672241%, 77.719116%, 76.541138%)" offset="0.914063"/><stop stop-opacity="1" stop-color="rgb(79.908752%, 77.947998%, 76.766968%)" offset="0.917969"/><stop stop-opacity="1" stop-color="rgb(80.14679%, 78.178406%, 76.994324%)" offset="0.921875"/><stop stop-opacity="1" stop-color="rgb(80.383301%, 78.408813%, 77.220154%)" offset="0.925781"/><stop stop-opacity="1" stop-color="rgb(80.619812%, 78.639221%, 77.445984%)" offset="0.929687"/><stop stop-opacity="1" stop-color="rgb(80.856323%, 78.868103%, 77.671814%)" offset="0.933594"/><stop stop-opacity="1" stop-color="rgb(81.09436%, 79.098511%, 77.89917%)" offset="0.9375"/><stop stop-opacity="1" stop-color="rgb(81.14624%, 79.148865%, 77.949524%)" offset="1"/></linearGradient></defs><rect x="-37.5" width="450" fill="#ffffff" y="-37.499999" height="449.999989" fill-opacity="1"/><rect x="-37.5" width="450" fill="#ffffff" y="-37.499999" height="449.999989" fill-opacity="1"/><rect x="-37.5" width="450" fill="#121212" y="-37.499999" height="449.999989" fill-opacity="1"/><g clip-path="url(#3260387930)"><g clip-path="url(#8414a77031)"><path fill="url(#655bd780c6)" d="M 19.242188 98.160156 L 19.242188 276.453125 L 197.535156 276.453125 L 197.535156 98.160156 Z M 19.242188 98.160156 " fill-rule="nonzero"/></g></g><g fill="#ebe6e3" fill-opacity="1"><g transform="translate(187.499992, 227.59074)"><g><path d="M 22.6875 0 L 10.640625 0 L 10.640625 -78.234375 L 22.6875 -78.234375 L 22.6875 -39.71875 L 59.21875 -78.234375 L 67.015625 -78.234375 L 30.015625 -41.84375 L 71.96875 0 L 56.84375 1.53125 L 22.6875 -38.53125 Z M 22.6875 0 "/></g></g></g><g fill="#ebe6e3" fill-opacity="1"><g transform="translate(275.662405, 227.59074)"><g><path d="M 60.15625 -33.6875 L 71.625 -33.6875 L 71.625 -2.59375 C 64.84375 0.0820312 56.6875 1.421875 47.15625 1.421875 C 35.570312 1.421875 25.601562 -1.648438 17.25 -7.796875 C 13.15625 -10.867188 9.882812 -14.90625 7.4375 -19.90625 C 5 -24.914062 3.78125 -30.453125 3.78125 -36.515625 C 3.78125 -42.585938 4.722656 -48.046875 6.609375 -52.890625 C 8.503906 -57.734375 10.96875 -61.769531 14 -65 C 17.039062 -68.226562 20.566406 -70.988281 24.578125 -73.28125 C 32.066406 -77.53125 40.300781 -79.65625 49.28125 -79.65625 C 52.75 -79.65625 56.492188 -79.257812 60.515625 -78.46875 C 64.535156 -77.6875 67.609375 -76.863281 69.734375 -76 L 68.546875 -68.078125 C 57.910156 -72.566406 49.085938 -74.8125 42.078125 -74.8125 C 34.117188 -72.757812 27.832031 -68.539062 23.21875 -62.15625 C 18.613281 -55.78125 16.3125 -47.984375 16.3125 -38.765625 C 16.3125 -27.265625 19.34375 -18.378906 25.40625 -12.109375 C 31.476562 -5.847656 39.476562 -2.71875 49.40625 -2.71875 C 53.34375 -2.71875 56.925781 -3.113281 60.15625 -3.90625 Z M 60.15625 -33.6875 "/></g></g></g></svg>